<svg width="1600" height="900" viewBox="0 0 1600 900" fill="none" xmlns="http://www.w3.org/2000/svg">
  <rect width="1600" height="900" rx="36" fill="#07111F"/>
  <rect width="1600" height="900" rx="36" fill="url(#bg)"/>
  <circle cx="1320" cy="140" r="220" fill="#173257" fill-opacity="0.38"/>
  <circle cx="250" cy="760" r="270" fill="#0E5E57" fill-opacity="0.28"/>
  <circle cx="1410" cy="760" r="180" fill="#7C3AED" fill-opacity="0.16"/>

  <rect x="72" y="78" width="1456" height="744" rx="28" fill="#081726" stroke="#26405E"/>
  <rect x="72" y="78" width="1456" height="64" rx="28" fill="#0C1F33"/>
  <circle cx="112" cy="110" r="8" fill="#FB7185"/>
  <circle cx="140" cy="110" r="8" fill="#F59E0B"/>
  <circle cx="168" cy="110" r="8" fill="#22C55E"/>

  <text x="120" y="230" fill="#E6EEF8" font-family="Arial, Helvetica, sans-serif" font-size="72" font-weight="700">TuiTrack</text>
  <text x="120" y="286" fill="#8FA7C2" font-family="Arial, Helvetica, sans-serif" font-size="28">Terminal-first dashboard for finance, work, private notes, and Binance monitoring.</text>

  <rect x="120" y="334" width="170" height="42" rx="21" fill="#1D4ED8"/>
  <text x="152" y="361" fill="#F8FBFF" font-family="Arial, Helvetica, sans-serif" font-size="19" font-weight="700">Rust + Ratatui</text>
  <rect x="304" y="334" width="160" height="42" rx="21" fill="#0F766E"/>
  <text x="340" y="361" fill="#F8FBFF" font-family="Arial, Helvetica, sans-serif" font-size="19" font-weight="700">Keyboard UI</text>
  <rect x="478" y="334" width="200" height="42" rx="21" fill="#B45309"/>
  <text x="518" y="361" fill="#FFF7ED" font-family="Arial, Helvetica, sans-serif" font-size="19" font-weight="700">Local-first data</text>

  <rect x="120" y="432" width="610" height="312" rx="22" fill="#0A1C2E" stroke="#1B3550"/>
  <text x="152" y="474" fill="#8AA7C7" font-family="Courier New, monospace" font-size="22">Launch Deck</text>
  <rect x="152" y="504" width="546" height="52" rx="14" fill="#123050"/>
  <text x="174" y="537" fill="#F8FBFF" font-family="Courier New, monospace" font-size="24">Expense Tracker</text>
  <text x="500" y="537" fill="#59C5FF" font-family="Courier New, monospace" font-size="20">balance + targets</text>

  <rect x="152" y="572" width="260" height="140" rx="16" fill="#0E2439"/>
  <text x="176" y="606" fill="#98B2CC" font-family="Courier New, monospace" font-size="20">Expense</text>
  <text x="176" y="646" fill="#FFB4B4" font-family="Courier New, monospace" font-size="34" font-weight="700">Rp 656.000</text>
  <text x="176" y="681" fill="#7C93AE" font-family="Courier New, monospace" font-size="18">outgoing flow</text>

  <rect x="438" y="572" width="260" height="140" rx="16" fill="#0E2439"/>
  <text x="462" y="606" fill="#98B2CC" font-family="Courier New, monospace" font-size="20">Savings</text>
  <text x="462" y="646" fill="#8EF0C6" font-family="Courier New, monospace" font-size="34" font-weight="700">Rp 2.100.000</text>
  <text x="462" y="681" fill="#7C93AE" font-family="Courier New, monospace" font-size="18">tracked locally</text>

  <rect x="782" y="192" width="664" height="552" rx="22" fill="#091A2B" stroke="#1B3550"/>
  <text x="816" y="232" fill="#8AA7C7" font-family="Courier New, monospace" font-size="22">Modules</text>

  <rect x="816" y="266" width="280" height="120" rx="18" fill="#112842"/>
  <text x="844" y="306" fill="#F8FBFF" font-family="Arial, Helvetica, sans-serif" font-size="26" font-weight="700">Expense</text>
  <text x="844" y="340" fill="#9DB3CB" font-family="Arial, Helvetica, sans-serif" font-size="19">expenses, savings, earnings</text>

  <rect x="1114" y="266" width="298" height="120" rx="18" fill="#10263B"/>
  <text x="1142" y="306" fill="#F8FBFF" font-family="Arial, Helvetica, sans-serif" font-size="26" font-weight="700">Work</text>
  <text x="1142" y="340" fill="#9DB3CB" font-family="Arial, Helvetica, sans-serif" font-size="19">task progress in terminal</text>

  <rect x="816" y="410" width="280" height="120" rx="18" fill="#10263B"/>
  <text x="844" y="450" fill="#F8FBFF" font-family="Arial, Helvetica, sans-serif" font-size="26" font-weight="700">Secret Notes</text>
  <text x="844" y="484" fill="#9DB3CB" font-family="Arial, Helvetica, sans-serif" font-size="19">encrypted local notes</text>

  <rect x="1114" y="410" width="298" height="120" rx="18" fill="#112842"/>
  <text x="1142" y="450" fill="#F8FBFF" font-family="Arial, Helvetica, sans-serif" font-size="26" font-weight="700">Binance</text>
  <text x="1142" y="484" fill="#9DB3CB" font-family="Arial, Helvetica, sans-serif" font-size="19">watchlist, chart, account</text>

  <rect x="816" y="560" width="596" height="144" rx="18" fill="#0E2439"/>
  <text x="844" y="600" fill="#E6EEF8" font-family="Courier New, monospace" font-size="24">Command Deck</text>
  <text x="844" y="642" fill="#93AFCA" font-family="Courier New, monospace" font-size="20">Enter  j/k  Tab  / filter  t theme  l language  q home</text>
  <text x="844" y="678" fill="#58D5BC" font-family="Courier New, monospace" font-size="19">Everything stays keyboard-driven.</text>

  <defs>
    <linearGradient id="bg" x1="145" y1="88" x2="1460" y2="850" gradientUnits="userSpaceOnUse">
      <stop stop-color="#0A1B2D"/>
      <stop offset="0.46" stop-color="#0A2136"/>
      <stop offset="1" stop-color="#07111F"/>
    </linearGradient>
  </defs>
</svg>
